{"title":"BLOOD.CRIME.2002.DVDrip","uid":6770876,"size":1461283305,"categoryP":"video","categoryS":"movies","magnet":"?xt=urn:btih:fb2ed9e3727ccd390b29dab69ca98fcfba730363&amp;dn=BLOOD.CRIME.2002.DVDrip&amp;tr=udp%3A%2F%2Ftracker.openbittorrent.com%3A80&amp;tr=udp%3A%2F%2Fopen.demonii.com%3A1337&amp;tr=udp%3A%2F%2Ftracker.coppersurfer.tk%3A6969&amp;tr=udp%3A%2F%2Fexodus.desync.com%3A6969","seeders":0,"leechers":1,"uploader":"LegendET","files":3,"time":1319568538,"description":"\n\n| C | L | Y | P | P | E | D |   | P | R | E | S | E | N | T | S |\n\n[img]http://lookpic.com/O/i2/2000/2uKdoyWC.jpeg[/img]\n\n\nBLOOD CRIME 2002\n\n\n\n\nFor burned-out Seattle cop Daniel Pruitt, a camping trip turns hellish when his wife, Jessica, is savagely attacked in the forest. En route to the hospital, the Pruitts collide with a semi, and Jessica identifies the driver as her assailant. Enraged, Pruitt pummels the man. Once at the ER, however, she changes her mind and names a male nurse as her attacker. But before Pruitt can make amends, he learns that his victim, the son of Sheriff Morgan McKenna, is dead.\n\nDirector:\nWilliam A. Graham\nWriters:\nMark Lawrence Miller, Preston A. Whitmore II\nStars:\nJames Caan, Johnathon Schaech and Elizabeth Lackey \n\n\n\n\n\nGeneral\nComplete name                    : Blood Crime 2002\nFormat                           : AVI\nFormat/Info                      : Audio Video Interleave\nFile size                        : 1.36 GiB\nDuration                         : 1h 24mn\nOveral bit rate                  : 2148 Kbps\nMovie name                       : Blood Crime 2002\nProduct                          : DVD VIDEO\n\nVideo\nFormat                           : MPEG-4 Visual\nFormat profile                   : Simple@L3\nFormat settings, BVOP            : No\nFormat settings, QPel            : No\nFormat settings, GMC             : No warppoints\nFormat settings, Matrix          : Default\nCodec ID                         : XVID\nCodec ID/Hint                    : XviD\nDuration                         : 1h 24mn\nBit rate                         : 1945 Kbps\nWidth                            : 720 pixels\nHeight                           : 416 pixels\nDisplay aspect ratio             : 16/9\nFrame rate                       : 25.000 fps\nResolution                       : 8 bits\nColorimetry                      : 4:2:0\nScan type                        : Progressive\nBits/(Pixel*Frame)               : 0.260\nStream size                      : 1.15 GiB\nWriting library                  : XviD 1.1.2 (UTC 2006-11-01)\n\nAudio\nFormat                           : AC-3\nFormat/Info                      : Audio Coding 3\nFormat profile                   : Dolby Digital\nCodec ID                         : 2000\nDuration                         : 1h 24mn\nBit rate mode                    : Constant\nBit rate                         : 192 Kbps\nChannel(s)                       : 2 channels\nChannel positions                : L R\nSampling rate                    : 48.0 KHz\nStream size                      : 116 MiB\nLanguage                         : undefined\n","torrent":{"xt":"urn:btih:fb2ed9e3727ccd390b29dab69ca98fcfba730363","amp;dn":"BLOOD.CRIME.2002.DVDrip","amp;tr":["udp%3A%2F%2Ftracker.openbittorrent.com%3A80","udp%3A%2F%2Fopen.demonii.com%3A1337","udp%3A%2F%2Ftracker.coppersurfer.tk%3A6969","udp%3A%2F%2Fexodus.desync.com%3A6969"],"infoHash":"fb2ed9e3727ccd390b29dab69ca98fcfba730363","infoHashBuffer":{"type":"Buffer","data":[251,46,217,227,114,124,205,57,11,41,218,182,156,169,143,207,186,115,3,99]},"announce":[],"urlList":[]}}